<?xml version="1.0" encoding="UTF-8" standalone="no"?>
<svg
   xmlns:dc="http://purl.org/dc/elements/1.1/"
   xmlns:cc="http://creativecommons.org/ns#"
   xmlns:rdf="http://www.w3.org/1999/02/22-rdf-syntax-ns#"
   xmlns:svg="http://www.w3.org/2000/svg"
   xmlns="http://www.w3.org/2000/svg"
   id="svg10"
   viewBox="0 0 20 20"
   y="0px"
   x="0px"
   version="1.1">
  <metadata
     id="metadata16">
    <rdf:RDF>
      <cc:Work
         rdf:about="">
        <dc:format>image/svg+xml</dc:format>
        <dc:type
           rdf:resource="http://purl.org/dc/dcmitype/StillImage" />
        <dc:title></dc:title>
      </cc:Work>
    </rdf:RDF>
  </metadata>
  <defs
     id="defs14" />
  <g
     id="g4"
     transform="matrix(0.89531539,0,0,0.8705275,-6.2613907,-891.75765)">
    <path
       id="path2"
       overflow="visible"
       display="inline"
       visibility="visible"
       marker="none"
       d="m 16.083667,1024.3877 c -0.3755,0.01 -0.698328,0.3255 -0.7629,0.6222 l -0.42203,2.2895 c -0.904336,0.3345 -1.73882,0.7962 -2.483484,1.3721 l -2.199425,-0.8376 c -0.3388186,-0.1293 -0.7621678,0.013 -0.9495673,0.3191 l -2.1669614,3.486 c -0.1835038,0.3037 -0.1151583,0.7315 0.1542032,0.9653 l 1.7449315,1.5237 c -0.1115587,0.5659 -0.1866671,1.1486 -0.1866671,1.747 0,0.5968 0.075662,1.1745 0.1866671,1.739 l -1.7449315,1.5237 c -0.2732728,0.2346 -0.3419585,0.6681 -0.1542032,0.9732 l 2.1669614,3.4861 c 0.1898641,0.3033 0.6125277,0.4418 0.9495673,0.3111 l 2.199425,-0.8296 c 0.74376,0.5748 1.58055,1.03 2.483484,1.3641 l 0.42203,2.2895 c 0.06385,0.3486 0.402497,0.6283 0.7629,0.6302 h 4.155372 c 0.363109,0 0.706691,-0.279 0.771016,-0.6302 l 0.42203,-2.2895 c 0.902936,-0.3341 1.739724,-0.7893 2.483484,-1.3641 l 2.199425,0.8296 c 0.335107,0.1265 0.752161,-0.011 0.941451,-0.3111 l 2.166961,-3.4861 c 0.189646,-0.3034 0.124623,-0.7366 -0.146087,-0.9732 l -1.744931,-1.5316 c 0.108769,-0.5646 0.178551,-1.1401 0.178551,-1.7311 0,-0.5925 -0.06922,-1.1732 -0.178551,-1.7391 l 1.744931,-1.5316 c 0.266791,-0.2358 0.33149,-0.6633 0.146087,-0.9653 l -2.166961,-3.486 c -0.186846,-0.3026 -0.604575,-0.4442 -0.941451,-0.3191 l -2.199425,0.8376 c -0.744664,-0.5759 -1.579148,-1.0376 -2.483484,-1.3721 l -0.42203,-2.2895 c -0.06768,-0.3484 -0.410159,-0.6248 -0.771016,-0.6222 z m 0.657393,1.5316 h 2.848702 l 0.38145,2.0502 c 0.05204,0.2723 0.266349,0.5085 0.535653,0.5903 1.038809,0.321 1.98071,0.8569 2.783775,1.5476 0.213347,0.1826 0.531934,0.2369 0.795364,0.1356 l 1.980294,-0.7498 1.485221,2.4011 -1.582613,1.3881 c -0.210293,0.1853 -0.304521,0.4887 -0.235362,0.7578 0.146079,0.5843 0.21913,1.1985 0.21913,1.8348 0,0.6362 -0.07305,1.2505 -0.21913,1.8348 -0.06604,0.2668 0.02785,0.5659 0.235362,0.7498 l 1.590729,1.3961 -1.493337,2.3931 -1.980294,-0.7498 c -0.26343,-0.1013 -0.582017,-0.047 -0.795364,0.1356 -0.80307,0.6907 -1.744973,1.2266 -2.783775,1.5476 -0.269304,0.082 -0.483612,0.318 -0.535653,0.5903 l -0.38145,2.0581 H 16.74106 l -0.38145,-2.0581 c -0.05204,-0.2723 -0.266349,-0.5085 -0.535654,-0.5903 -1.038798,-0.321 -1.980707,-0.8569 -2.783774,-1.5476 -0.213347,-0.1826 -0.531934,-0.2369 -0.795364,-0.1356 l -1.98841,0.7498 -1.4852209,-2.3931 1.5907279,-1.3881 c 0.210363,-0.1822 0.307596,-0.4816 0.243479,-0.7499 -0.148534,-0.5911 -0.235363,-1.2076 -0.235363,-1.8427 0,-0.6351 0.08683,-1.2516 0.235363,-1.8428 0.06724,-0.2705 -0.03034,-0.5743 -0.243479,-0.7578 l -1.5907279,-1.3881 1.4933369,-2.3931 1.980294,0.7498 c 0.26343,0.1013 0.582017,0.047 0.795364,-0.1356 0.803065,-0.6907 1.744968,-1.2266 2.783774,-1.5476 0.269305,-0.082 0.483613,-0.318 0.535654,-0.5903 z m 1.420293,4.0844 c -3.289758,0 -5.973347,2.6377 -5.973347,5.8713 0,3.2335 2.683591,5.8713 5.973347,5.8713 3.289758,0 5.973346,-2.6378 5.973346,-5.8713 0,-3.2336 -2.683585,-5.8713 -5.973346,-5.8713 z m 0,1.5316 c 2.447612,0 4.415082,1.9339 4.415082,4.3397 0,2.4058 -1.967467,4.3396 -4.415082,4.3396 -2.447613,0 -4.415082,-1.9338 -4.415082,-4.3396 0,-2.4058 1.967472,-4.3397 4.415082,-4.3397 z"
       style="color:#000000;text-indent:0;text-transform:none;direction:ltr;baseline-shift:baseline;display:inline;overflow:visible;visibility:visible;fill:#fffffe;fill-opacity:1;stroke:none;stroke-width:0.25748217;enable-background:accumulate" />
  </g>
</svg>
