<?xml version="1.0" encoding="UTF-8" standalone="no"?>
<svg
   xmlns:dc="http://purl.org/dc/elements/1.1/"
   xmlns:cc="http://creativecommons.org/ns#"
   xmlns:rdf="http://www.w3.org/1999/02/22-rdf-syntax-ns#"
   xmlns:svg="http://www.w3.org/2000/svg"
   xmlns="http://www.w3.org/2000/svg"
   id="svg276"
   xml:space="preserve"
   enable-background="new 0 0 144.083 144"
   viewBox="0 0 80.648329 80.850293"
   y="0px"
   x="0px"
   version="1.1"><metadata
     id="metadata282"><rdf:RDF><cc:Work
         rdf:about=""><dc:format>image/svg+xml</dc:format><dc:type
           rdf:resource="http://purl.org/dc/dcmitype/StillImage" /><dc:title></dc:title></cc:Work></rdf:RDF></metadata><defs
     id="defs280" /><path
     style="stroke-width:0.85060132"
     id="path270"
     d="M 52.905693,9.940783 27.742632,0.923373 0,10.864998 v 69.9853 l 27.742632,-9.9391 25.163061,9.014885 27.742632,-9.9391 V 0 Z M 5.157422,14.394354 25.16392,7.224533 V 66.456785 L 5.157422,73.624081 Z m 70.33434,52.063273 -20.0065,7.167296 V 14.394354 l 20.0065,-7.168979 z" /><path
     id="path566"
     d="M 0.09773182,45.819278 0.14898276,10.917767 4.7097936,9.2861793 C 7.2182395,8.3888059 13.433111,6.1635839 18.520619,4.3412416 L 27.770633,1.0278922 37.777377,4.615398 c 5.503706,1.9731282 11.161706,4.0023606 12.573332,4.5094054 L 52.9173,10.046703 66.364223,5.2276879 C 73.760029,2.5772294 79.970773,0.36666534 80.165875,0.31532322 80.5027,0.22668578 80.520604,1.9813153 80.520604,35.077099 V 69.932226 L 66.851978,74.830472 C 59.334235,77.524507 53.063121,79.728487 52.916167,79.728208 52.769216,79.728005 47.049762,77.720255 40.20627,75.266713 L 27.763557,70.805729 14.969783,75.392928 C 7.9332078,77.915887 1.6968658,80.146774 1.1112453,80.350458 L 0.04648087,80.72079 Z m 15.15260218,24.301673 9.831081,-3.523427 0.05135,-29.718187 c 0.02824,-16.345003 0.02397,-29.7181882 -0.0095,-29.7181882 -0.03346,0 -4.512798,1.5962838 -9.954073,3.5472972 -5.4412751,1.951014 -9.9294002,3.547297 -9.9736112,3.547297 -0.044211,0 -0.080384,13.363176 -0.080384,29.695946 0,16.332771 0.068412,29.695212 0.152027,29.694317 0.083615,-8.11e-4 4.5760135,-1.587171 9.9831082,-3.525055 z m 50.374508,-0.02061 c 5.440703,-1.951014 9.923396,-3.547297 9.961541,-3.547297 0.03815,0 0.06936,-13.363176 0.06936,-29.695946 0,-16.332771 -0.05586,-29.6959462 -0.124144,-29.6959462 -0.06828,0 -4.629091,1.6123411 -10.135135,3.5829802 l -10.010992,3.58298 v 29.660262 c 0,16.322797 0.07806,29.660264 0.173595,29.660264 0.09548,0 4.625078,-1.596284 10.065778,-3.547297 z"
     style="fill:none;stroke-width:0.2027027" /><path
     id="path568"
     d="M 0.09773182,45.819278 0.14898276,10.917767 4.7097936,9.2861793 C 7.2182395,8.3888059 13.433111,6.1635839 18.520619,4.3412416 L 27.770633,1.0278922 37.777377,4.615398 c 5.503706,1.9731282 11.161706,4.0023606 12.573332,4.5094054 L 52.9173,10.046703 66.364223,5.2276879 C 73.760029,2.5772294 79.970773,0.36666534 80.165875,0.31532322 80.5027,0.22668578 80.520604,1.9813153 80.520604,35.077099 V 69.932226 L 66.851978,74.830472 C 59.334235,77.524507 53.063121,79.728487 52.916167,79.728208 52.769216,79.728005 47.049762,77.720255 40.20627,75.266713 L 27.763557,70.805729 14.969783,75.392928 C 7.9332078,77.915887 1.6968658,80.146774 1.1112453,80.350458 L 0.04648087,80.72079 Z m 15.15260218,24.301673 9.831081,-3.523427 0.05135,-29.718187 c 0.02824,-16.345003 0.02397,-29.7181882 -0.0095,-29.7181882 -0.03346,0 -4.512798,1.5962838 -9.954073,3.5472972 -5.4412751,1.951014 -9.9294002,3.547297 -9.9736112,3.547297 -0.044211,0 -0.080384,13.363176 -0.080384,29.695946 0,16.332771 0.068412,29.695212 0.152027,29.694317 0.083615,-8.11e-4 4.5760135,-1.587171 9.9831082,-3.525055 z m 50.374508,-0.02061 c 5.440703,-1.951014 9.923396,-3.547297 9.961541,-3.547297 0.03815,0 0.06936,-13.363176 0.06936,-29.695946 0,-16.332771 -0.05586,-29.6959462 -0.124144,-29.6959462 -0.06828,0 -4.629091,1.6123411 -10.135135,3.5829802 l -10.010992,3.58298 v 29.660262 c 0,16.322797 0.07806,29.660264 0.173595,29.660264 0.09548,0 4.625078,-1.596284 10.065778,-3.547297 z"
     style="fill:none;stroke-width:0.2027027" /><path
     id="path570"
     d="M 0.09773182,45.819278 0.14898276,10.917767 4.7097936,9.2861793 C 7.2182395,8.3888059 13.433111,6.1635839 18.520619,4.3412416 L 27.770633,1.0278922 37.777377,4.615398 c 5.503706,1.9731282 11.161706,4.0023606 12.573332,4.5094054 L 52.9173,10.046703 66.364223,5.2276879 C 73.760029,2.5772294 79.970773,0.36666534 80.165875,0.31532322 80.5027,0.22668578 80.520604,1.9813153 80.520604,35.077099 V 69.932226 L 66.851978,74.830472 C 59.334235,77.524507 53.063121,79.728487 52.916167,79.728208 52.769216,79.728005 47.049762,77.720255 40.20627,75.266713 L 27.763557,70.805729 14.969783,75.392928 C 7.9332078,77.915887 1.6968658,80.146774 1.1112453,80.350458 L 0.04648087,80.72079 Z m 15.15260218,24.301673 9.831081,-3.523427 0.05135,-29.718187 c 0.02824,-16.345003 0.02397,-29.7181882 -0.0095,-29.7181882 -0.03346,0 -4.512798,1.5962838 -9.954073,3.5472972 -5.4412751,1.951014 -9.9294002,3.547297 -9.9736112,3.547297 -0.044211,0 -0.080384,13.363176 -0.080384,29.695946 0,16.332771 0.068412,29.695212 0.152027,29.694317 0.083615,-8.11e-4 4.5760135,-1.587171 9.9831082,-3.525055 z m 50.374508,-0.02061 c 5.440703,-1.951014 9.923396,-3.547297 9.961541,-3.547297 0.03815,0 0.06936,-13.363176 0.06936,-29.695946 0,-16.332771 -0.05586,-29.6959462 -0.124144,-29.6959462 -0.06828,0 -4.629091,1.6123411 -10.135135,3.5829802 l -10.010992,3.58298 v 29.660262 c 0,16.322797 0.07806,29.660264 0.173595,29.660264 0.09548,0 4.625078,-1.596284 10.065778,-3.547297 z"
     style="fill:#000000;stroke-width:0.2027027;fill-opacity:1" /><path
     id="path5066"
     d="M 0.05718966,45.851908 0.10844222,10.917767 4.669253,9.2861793 C 7.177699,8.3888059 13.400374,6.1607909 18.497419,4.3350349 L 27.764775,1.0154784 40.337376,5.5237828 52.909979,10.032087 66.340292,5.2217907 c 7.38667,-2.6456631 13.589941,-4.85293859 13.785042,-4.90505667 0.336831,-0.0899786 0.35473,1.66468907 0.35473,34.77391597 v 34.868678 l -0.557433,0.197609 c -0.306587,0.108683 -6.449454,2.306797 -13.650816,4.884693 -7.201363,2.577898 -13.240146,4.687086 -13.419517,4.687086 -0.179372,0 -0.535661,-0.08906 -0.791751,-0.197906 -0.256091,-0.10885 -5.828435,-2.113097 -12.382989,-4.453884 L 27.760186,70.820952 14.238368,75.66486 C 6.8013684,78.329008 0.55666235,80.571153 0.36124371,80.647406 0.02335432,80.779249 0.00844951,79.073565 0.05718966,45.851908 Z M 15.209794,70.121901 25.040875,66.601118 25.092225,36.864017 C 25.120579,20.444255 25.06591,7.1572751 24.970152,7.1947076 24.874768,7.2319936 20.359261,8.85159 14.935693,10.793811 l -9.8610346,3.531311 v 29.526122 c 0,24.770795 0.048751,29.828858 0.2871623,29.793916 0.00929,-0.0014 4.4408783,-1.586829 9.8479733,-3.523259 z m 50.380285,-0.02156 c 5.443419,-1.951014 9.925923,-3.547297 9.961123,-3.547297 0.0352,0 0.064,-13.372934 0.064,-29.717633 0,-23.686355 -0.05142,-29.6996019 -0.253378,-29.628789 -0.139359,0.048864 -4.700169,1.6771028 -10.135136,3.618308 l -9.881756,3.529463 0.0028,29.190542 c 0.0024,25.433544 0.04836,30.102703 0.296239,30.102703 0.02696,0 4.502727,-1.596284 9.946144,-3.547297 z"
     style="fill:#ffffff;fill-opacity:1;stroke-width:0.2027027" /></svg>