<?xml version="1.0" encoding="UTF-8" standalone="no"?>
<svg
   xmlns:dc="http://purl.org/dc/elements/1.1/"
   xmlns:cc="http://creativecommons.org/ns#"
   xmlns:rdf="http://www.w3.org/1999/02/22-rdf-syntax-ns#"
   xmlns:svg="http://www.w3.org/2000/svg"
   xmlns="http://www.w3.org/2000/svg"
   xmlns:sodipodi="http://sodipodi.sourceforge.net/DTD/sodipodi-0.dtd"
   xmlns:inkscape="http://www.inkscape.org/namespaces/inkscape"
   version="1.1"
   x="0px"
   y="0px"
   enable-background="new 0 0 20 20"
   xml:space="preserve"
   id="svg4509"
   viewBox="0 0 20 20"
   sodipodi:docname="Notifications.svg"
   inkscape:version="0.92.2 (5c3e80d, 2017-08-06)"><metadata
     id="metadata4515"><rdf:RDF><cc:Work
         rdf:about=""><dc:format>image/svg+xml</dc:format><dc:type
           rdf:resource="http://purl.org/dc/dcmitype/StillImage" /><dc:title></dc:title></cc:Work></rdf:RDF></metadata><defs
     id="defs4513" /><sodipodi:namedview
     pagecolor="#ffffff"
     bordercolor="#666666"
     borderopacity="1"
     objecttolerance="10"
     gridtolerance="10"
     guidetolerance="10"
     inkscape:pageopacity="0"
     inkscape:pageshadow="2"
     inkscape:window-width="1858"
     inkscape:window-height="1057"
     id="namedview4511"
     showgrid="false"
     fit-margin-top="0"
     fit-margin-left="0"
     fit-margin-right="0"
     fit-margin-bottom="0"
     inkscape:zoom="4.92"
     inkscape:cx="-20.992442"
     inkscape:cy="-34.937008"
     inkscape:window-x="54"
     inkscape:window-y="-8"
     inkscape:window-maximized="1"
     inkscape:current-layer="g4503" /><g
     id="g4503"
     transform="matrix(1.25,0,0,1.2490421,0,-2.9674808)"><path
       d="M 13.599999,2.3758053 H 2.4 c -1.36,0 -2.4,1.12 -2.4,2.3999999 v 7.9999988 c 0,1.360001 1.04,2.400001 2.4,2.400001 v 2.4 c 0,0.96 1.04,0.96 1.3599999,0.56 l 2.9599999,-2.96 h 6.8799992 c 1.36,0 2.400001,-1.04 2.400001,-2.400001 V 4.7758052 C 16,3.4958053 14.959999,2.3758053 13.599999,2.3758053 Z M 14.4,12.775804 c 0,0.480001 -0.32,0.800001 -0.800001,0.800001 H 6.3999998 c -0.2399999,0 -0.3999999,0.08 -0.56,0.239999 L 4,15.655805 v -1.28 c 0,-0.480001 -0.3200001,-0.8 -0.8000001,-0.8 H 2.4 c -0.4800001,0 -0.8,-0.32 -0.8,-0.800001 V 4.7758052 c 0,-0.48 0.3199999,-0.8 0.8,-0.8 h 11.199999 c 0.480001,0 0.800001,0.32 0.800001,0.8 z"
       id="path4497"
       inkscape:connector-curvature="0"
       style="fill:#ffffff;stroke-width:0.80000001;fill-opacity:1" /><path
       d="m 7.9999998,7.175805 c -0.4799999,0 -0.7999999,0.4 -0.7999999,0.8 v 4 c 0,0.48 0.32,0.799999 0.7999999,0.799999 C 8.4799999,12.775804 8.8,12.455805 8.8,11.975805 v -4 c 0,-0.4 -0.3200001,-0.8 -0.8000002,-0.8 z"
       id="path4499"
       inkscape:connector-curvature="0"
       style="fill:#ffffff;stroke-width:0.80000001;fill-opacity:1" /><circle
       cx="7.9999995"
       cy="5.5758052"
       id="circle4501"
       style="fill:#ffffff;stroke-width:0.80000001;fill-opacity:1"
       r="0.79999995" /></g></svg>